<?xml version="1.0" encoding="UTF-8"?>
<svg xmlns="http://www.w3.org/2000/svg" viewBox="0 0 676.07 676.07">
  <defs>
    <style>
      .cls-1 {
        fill: #f2f500;
      }

      .cls-1, .cls-2, .cls-3, .cls-4, .cls-5, .cls-6, .cls-7, .cls-8, .cls-9, .cls-10, .cls-11, .cls-12, .cls-13, .cls-14, .cls-15, .cls-16, .cls-17, .cls-18, .cls-19, .cls-20, .cls-21, .cls-22, .cls-23, .cls-24, .cls-25, .cls-26, .cls-27, .cls-28, .cls-29, .cls-30, .cls-31, .cls-32, .cls-33, .cls-34, .cls-35 {
        mix-blend-mode: multiply;
        opacity: .25;
      }

      .cls-2 {
        fill: #ffca00;
      }

      .cls-3 {
        fill: #ff1c00;
      }

      .cls-4 {
        fill: #ff3800;
      }

      .cls-5 {
        fill: #fff500;
      }

      .cls-6 {
        fill: #ffdc00;
      }

      .cls-7 {
        fill: #ffe600;
      }

      .cls-8 {
        fill: #ffa400;
      }

      .cls-9 {
        fill: #ff5600;
      }

      .cls-10 {
        fill: #95004e;
      }

      .cls-11 {
        fill: #860062;
      }

      .cls-12 {
        fill: #ff7900;
      }

      .cls-13 {
        fill: #ac0062;
      }

      .cls-14 {
        fill: #a9e100;
      }

      .cls-15 {
        fill: #cde600;
      }

      .cls-16 {
        fill: #c52b00;
      }

      .cls-17 {
        fill: #00cdd4;
      }

      .cls-18 {
        fill: #00cdc5;
      }

      .cls-19 {
        fill: #00c5ed;
      }

      .cls-20 {
        fill: #0054e3;
      }

      .cls-21 {
        fill: #00decf;
      }

      .cls-22 {
        fill: #0081e2;
      }

      .cls-23 {
        fill: #77e100;
      }

      .cls-24 {
        fill: #2dace1;
      }

      .cls-25 {
        fill: #264687;
      }

      .cls-26 {
        fill: #3050b3;
      }

      .cls-27 {
        fill: #2f357e;
      }

      .cls-28 {
        fill: #72217e;
      }

      .cls-29 {
        fill: #9d0d42;
      }

      .cls-30 {
        fill: #53357e;
      }

      .cls-31 {
        fill: #35bd00;
      }

      .cls-32 {
        fill: #0aa200;
      }

      .cls-33 {
        fill: #0ab197;
      }

      .cls-34 {
        fill: #0ab15d;
      }

      .cls-35 {
        fill: #d90000;
      }

      .cls-36 {
        isolation: isolate;
      }
    </style>
  </defs>
  <g class="cls-36">
    <g id="Layer_1" data-name="Layer 1">
      <g>
        <path class="cls-5" d="m304.44,169.34c0,65.08,12.74,124.32,33.6,168.7,21.04-44.45,33.9-103.94,33.9-169.34S359.2,44.38,338.34,0c-21.04,44.45-33.9,103.94-33.9,169.34Z"/>
        <path class="cls-1" d="m275.66,177.74c11.3,64.09,34.14,120.22,62.38,160.3,13-47.43,15.34-108.25,3.98-172.65-11.3-64.09-34.14-120.22-62.38-160.3-13,47.43-15.34,108.25-3.98,172.65Z"/>
        <path class="cls-15" d="m248.77,191c22.26,61.15,54.49,112.47,89.27,147.03,4.56-48.96-3.69-109.27-26.06-170.72-22.26-61.15-54.49-112.47-89.27-147.03-4.56,48.96,3.69,109.27,26.06,170.72Z"/>
        <path class="cls-14" d="m224.59,208.74c32.54,56.36,73.2,101.29,113.45,129.3-4.01-49.01-22.61-106.97-55.31-163.6-32.54-56.36-73.2-101.29-113.45-129.3,4.01,49.01,22.61,106.97,55.31,163.6Z"/>
        <path class="cls-23" d="m203.86,230.4c41.83,49.85,89.67,87.05,134.18,107.63-12.46-47.57-40.84-101.42-82.88-151.51-41.83-49.85-89.67-87.05-134.18-107.63,12.46,47.57,40.84,101.42,82.88,151.51Z"/>
        <path class="cls-31" d="m187.21,255.34c49.85,41.83,103.43,70.15,150.83,82.7-20.53-44.68-57.83-92.78-107.93-134.82-49.85-41.83-103.43-70.15-150.83-82.7,20.53,44.68,57.83,92.78,107.93,134.82Z"/>
        <path class="cls-32" d="m175.14,282.78c56.36,32.54,114.04,51.13,162.9,55.25-27.98-40.44-73.07-81.33-129.7-114.03-56.36-32.54-114.04-51.13-162.9-55.25,27.98,40.44,73.07,81.33,129.7,114.03Z"/>
        <path class="cls-34" d="m168.02,311.91c61.15,22.26,121.18,30.55,170.02,26.13-34.57-34.97-86.08-67.41-147.53-89.77-61.15-22.26-121.18-30.55-170.02-26.13,34.57,34.97,86.08,67.41,147.53,89.77Z"/>
        <path class="cls-33" d="m166.07,341.83c64.09,11.3,124.64,9.04,171.97-3.79-40.12-28.43-96.48-51.44-160.88-62.79-64.09-11.3-124.64-9.04-171.97,3.79,40.12,28.43,96.48,51.44,160.88,62.79Z"/>
        <path class="cls-18" d="m169.34,371.64c65.08,0,124.32-12.74,168.7-33.6-44.45-21.04-103.94-33.9-169.34-33.9-65.08,0-124.32,12.74-168.7,33.6,44.45,21.04,103.94,33.9,169.34,33.9Z"/>
        <path class="cls-21" d="m177.74,400.42c64.09-11.3,120.22-34.14,160.3-62.38-47.43-13-108.25-15.34-172.65-3.98-64.09,11.3-120.22,34.14-160.3,62.38,47.43,13,108.25,15.34,172.65,3.98Z"/>
        <path class="cls-17" d="m191,427.31c61.15-22.26,112.47-54.49,147.03-89.27-48.96-4.56-109.27,3.69-170.72,26.06-61.15,22.26-112.47,54.49-147.03,89.27,48.96,4.56,109.27-3.69,170.72-26.06Z"/>
        <path class="cls-19" d="m208.74,451.48c56.36-32.54,101.29-73.2,129.3-113.45-49.01,4.01-106.97,22.61-163.6,55.31-56.36,32.54-101.29,73.2-129.3,113.45,49.01-4.01,106.97-22.61,163.6-55.31Z"/>
        <path class="cls-24" d="m230.4,472.21c49.85-41.83,87.05-89.67,107.63-134.18-47.57,12.46-101.42,40.84-151.51,82.88-49.85,41.83-87.05,89.67-107.63,134.18,47.57-12.46,101.42-40.84,151.51-82.88Z"/>
        <path class="cls-22" d="m255.34,488.86c41.83-49.85,70.15-103.43,82.7-150.83-44.68,20.53-92.78,57.83-134.82,107.93-41.83,49.85-70.15,103.43-82.7,150.83,44.68-20.53,92.78-57.83,134.82-107.93Z"/>
        <path class="cls-20" d="m282.78,500.93c32.54-56.36,51.13-114.04,55.25-162.9-40.44,27.98-81.33,73.07-114.03,129.7-32.54,56.36-51.13,114.04-55.25,162.9,40.44-27.98,81.33-73.07,114.03-129.7Z"/>
        <path class="cls-26" d="m311.91,508.05c22.26-61.15,30.55-121.18,26.13-170.02-34.97,34.57-67.41,86.08-89.77,147.53-22.26,61.15-30.55,121.18-26.13,170.02,34.97-34.57,67.41-86.08,89.77-147.53Z"/>
        <path class="cls-25" d="m341.83,510.01c11.3-64.09,9.04-124.64-3.79-171.97-28.43,40.12-51.44,96.48-62.79,160.88-11.3,64.09-9.04,124.64,3.79,171.97,28.43-40.12,51.44-96.48,62.79-160.88Z"/>
        <path class="cls-27" d="m371.64,506.74c0-65.08-12.74-124.32-33.6-168.7-21.04,44.45-33.9,103.94-33.9,169.34,0,65.08,12.74,124.32,33.6,168.7,21.04-44.45,33.9-103.94,33.9-169.34Z"/>
        <path class="cls-30" d="m400.42,498.34c-11.3-64.09-34.14-120.22-62.38-160.3-13,47.43-15.34,108.25-3.98,172.65,11.3,64.09,34.14,120.22,62.38,160.3,13-47.43,15.34-108.25,3.98-172.65Z"/>
        <path class="cls-28" d="m427.31,485.07c-22.26-61.15-54.49-112.47-89.27-147.03-4.56,48.96,3.69,109.27,26.06,170.72,22.26,61.15,54.49,112.47,89.27,147.03,4.56-48.96-3.69-109.27-26.06-170.72Z"/>
        <path class="cls-11" d="m451.48,467.34c-32.54-56.36-73.2-101.29-113.45-129.3,4.01,49.01,22.61,106.97,55.31,163.6,32.54,56.36,73.2,101.29,113.45,129.3-4.01-49.01-22.61-106.97-55.31-163.6Z"/>
        <path class="cls-10" d="m472.21,445.67c-41.83-49.85-89.67-87.05-134.18-107.63,12.46,47.57,40.84,101.42,82.88,151.51,41.83,49.85,89.67,87.05,134.18,107.63-12.46-47.57-40.84-101.42-82.88-151.51Z"/>
        <path class="cls-13" d="m488.86,420.74c-49.85-41.83-103.43-70.15-150.83-82.7,20.53,44.68,57.83,92.78,107.93,134.82,49.85,41.83,103.43,70.15,150.83,82.7-20.53-44.68-57.83-92.78-107.93-134.82Z"/>
        <path class="cls-29" d="m500.93,393.29c-56.36-32.54-114.04-51.13-162.9-55.25,27.98,40.44,73.07,81.33,129.7,114.03,56.36,32.54,114.04,51.13,162.9,55.25-27.98-40.44-73.07-81.33-129.7-114.03Z"/>
        <path class="cls-16" d="m508.05,364.16c-61.15-22.26-121.18-30.55-170.02-26.13,34.57,34.97,86.08,67.41,147.53,89.77,61.15,22.26,121.18,30.55,170.02,26.13-34.57-34.97-86.08-67.41-147.53-89.77Z"/>
        <path class="cls-35" d="m510.01,334.24c-64.09-11.3-124.64-9.04-171.97,3.79,40.12,28.43,96.48,51.44,160.88,62.79,64.09,11.3,124.64,9.04,171.97-3.79-40.12-28.43-96.48-51.44-160.88-62.79Z"/>
        <path class="cls-3" d="m506.74,304.44c-65.08,0-124.32,12.74-168.7,33.6,44.45,21.04,103.94,33.9,169.34,33.9,65.08,0,124.32-12.74,168.7-33.6-44.45-21.04-103.94-33.9-169.34-33.9Z"/>
        <path class="cls-4" d="m498.34,275.66c-64.09,11.3-120.22,34.14-160.3,62.38,47.43,13,108.25,15.34,172.65,3.98,64.09-11.3,120.22-34.14,160.3-62.38-47.43-13-108.25-15.34-172.65-3.98Z"/>
        <path class="cls-9" d="m485.07,248.77c-61.15,22.26-112.47,54.49-147.03,89.27,48.96,4.56,109.27-3.69,170.72-26.06,61.15-22.26,112.47-54.49,147.03-89.27-48.96-4.56-109.27,3.69-170.72,26.06Z"/>
        <path class="cls-12" d="m467.34,224.59c-56.36,32.54-101.29,73.2-129.3,113.45,49.01-4.01,106.97-22.61,163.6-55.31,56.36-32.54,101.29-73.2,129.3-113.45-49.01,4.01-106.97,22.61-163.6,55.31Z"/>
        <path class="cls-8" d="m445.67,203.86c-49.85,41.83-87.05,89.67-107.63,134.18,47.57-12.46,101.42-40.84,151.51-82.88,49.85-41.83,87.05-89.67,107.63-134.18-47.57,12.46-101.42,40.84-151.51,82.88Z"/>
        <path class="cls-2" d="m420.74,187.21c-41.83,49.85-70.15,103.43-82.7,150.83,44.68-20.53,92.78-57.83,134.82-107.93,41.83-49.85,70.15-103.43,82.7-150.83-44.68,20.53-92.78,57.83-134.82,107.93Z"/>
        <path class="cls-6" d="m393.29,175.14c-32.54,56.36-51.13,114.04-55.25,162.9,40.44-27.98,81.33-73.07,114.03-129.7,32.54-56.36,51.13-114.04,55.25-162.9-40.44,27.98-81.33,73.07-114.03,129.7Z"/>
        <path class="cls-7" d="m364.16,168.02c-22.26,61.15-30.55,121.18-26.13,170.02,34.97-34.57,67.41-86.08,89.77-147.53,22.26-61.15,30.55-121.18,26.13-170.02-34.97,34.57-67.41,86.08-89.77,147.53Z"/>
        <path class="cls-5" d="m334.24,166.07c-11.3,64.09-9.04,124.64,3.79,171.97,28.43-40.12,51.44-96.48,62.79-160.88,11.3-64.09,9.04-124.64-3.79-171.97-28.43,40.12-51.44,96.48-62.79,160.88Z"/>
      </g>
    </g>
  </g>
</svg>