<?xml version="1.0" encoding="utf-8"?>
<!-- Generator: Adobe Illustrator 27.5.0, SVG Export Plug-In . SVG Version: 6.00 Build 0)  -->
<svg version="1.1" id="Layer_1" xmlns="http://www.w3.org/2000/svg" xmlns:xlink="http://www.w3.org/1999/xlink" x="0px" y="0px"
	 viewBox="0 0 1000 1000" style="enable-background:new 0 0 1000 1000;" xml:space="preserve">
<style type="text/css">
	.st0{opacity:0.25;fill:#FFF500;}
	.st1{opacity:0.25;fill:#F2F500;}
	.st2{opacity:0.25;fill:#CDE600;}
	.st3{opacity:0.25;fill:#A9E100;}
	.st4{opacity:0.25;fill:#77E100;}
	.st5{opacity:0.25;fill:#35BD00;}
	.st6{opacity:0.25;fill:#0AA200;}
	.st7{opacity:0.25;fill:#0AB15D;}
	.st8{opacity:0.25;fill:#0AB197;}
	.st9{opacity:0.25;fill:#00CDC5;}
	.st10{opacity:0.25;fill:#00DECF;}
	.st11{opacity:0.25;fill:#00CDD4;}
	.st12{opacity:0.25;fill:#00C5ED;}
	.st13{opacity:0.25;fill:#2DACE1;}
	.st14{opacity:0.25;fill:#0081E2;}
	.st15{opacity:0.25;fill:#0054E3;}
	.st16{opacity:0.25;fill:#3050B3;}
	.st17{opacity:0.25;fill:#264687;}
	.st18{opacity:0.25;fill:#2F357E;}
	.st19{opacity:0.25;fill:#53357E;}
	.st20{opacity:0.25;fill:#72217E;}
	.st21{opacity:0.25;fill:#860062;}
	.st22{opacity:0.25;fill:#95004E;}
	.st23{opacity:0.25;fill:#AC0062;}
	.st24{opacity:0.25;fill:#9D0D42;}
	.st25{opacity:0.25;fill:#C52B00;}
	.st26{opacity:0.25;fill:#D90000;}
	.st27{opacity:0.25;fill:#FF1C00;}
	.st28{opacity:0.25;fill:#FF3800;}
	.st29{opacity:0.25;fill:#FF5600;}
	.st30{opacity:0.25;fill:#FF7900;}
	.st31{opacity:0.25;fill:#FFA400;}
	.st32{opacity:0.25;fill:#FFCA00;}
	.st33{opacity:0.25;fill:#FFDC00;}
	.st34{opacity:0.25;fill:#FFE600;}
</style>
<g>
	<path class="st0" d="M466.4,331.3c0,65.08,12.74,124.32,33.6,168.7c21.04-44.45,33.9-103.94,33.9-169.34
		c0-65.08-12.74-124.32-33.6-168.7C479.27,206.41,466.4,265.91,466.4,331.3z"/>
	<path class="st1" d="M437.62,339.7c11.3,64.09,34.14,120.22,62.38,160.3c13-47.43,15.34-108.25,3.98-172.65
		c-11.3-64.09-34.14-120.22-62.38-160.3C428.6,214.47,426.26,275.3,437.62,339.7z"/>
	<path class="st2" d="M410.73,352.97C432.99,414.12,465.22,465.43,500,500c4.56-48.96-3.69-109.27-26.06-170.72
		c-22.26-61.15-54.49-112.47-89.27-147.03C380.1,231.21,388.36,291.52,410.73,352.97z"/>
	<path class="st3" d="M386.55,370.7C419.09,427.06,459.75,472,500,500c-4.01-49.01-22.61-106.97-55.31-163.6
		c-32.54-56.36-73.2-101.29-113.45-129.3C335.25,256.11,353.86,314.07,386.55,370.7z"/>
	<path class="st4" d="M365.82,392.37C407.66,442.22,455.5,479.41,500,500c-12.46-47.57-40.84-101.42-82.88-151.51
		c-41.83-49.85-89.67-87.04-134.18-107.63C295.4,288.42,323.79,342.27,365.82,392.37z"/>
	<path class="st5" d="M349.17,417.3C399.03,459.13,452.6,487.45,500,500c-20.53-44.68-57.83-92.78-107.93-134.82
		c-49.85-41.83-103.43-70.15-150.83-82.7C261.77,327.17,299.08,375.27,349.17,417.3z"/>
	<path class="st6" d="M337.1,444.75C393.46,477.29,451.14,495.87,500,500c-27.98-40.44-73.07-81.33-129.7-114.03
		c-56.36-32.54-114.04-51.13-162.9-55.25C235.38,371.16,280.47,412.05,337.1,444.75z"/>
	<path class="st7" d="M329.98,473.87C391.14,496.13,451.16,504.42,500,500c-34.57-34.97-86.08-67.41-147.53-89.77
		c-61.15-22.26-121.18-30.55-170.02-26.13C217.03,419.07,268.53,451.51,329.98,473.87z"/>
	<path class="st8" d="M328.03,503.79c64.09,11.3,124.64,9.04,171.97-3.79c-40.12-28.43-96.48-51.44-160.88-62.79
		c-64.09-11.3-124.64-9.04-171.97,3.79C207.27,469.44,263.63,492.44,328.03,503.79z"/>
	<path class="st9" d="M331.3,533.6c65.08,0,124.32-12.74,168.7-33.6c-44.45-21.04-103.94-33.9-169.34-33.9
		c-65.08,0-124.32,12.74-168.7,33.6C206.41,520.73,265.91,533.6,331.3,533.6z"/>
	<path class="st10" d="M339.7,562.38c64.09-11.3,120.22-34.14,160.3-62.38c-47.43-13-108.25-15.34-172.65-3.98
		c-64.09,11.3-120.22,34.14-160.3,62.38C214.47,571.4,275.3,573.74,339.7,562.38z"/>
	<path class="st11" d="M352.97,589.27C414.12,567.01,465.43,534.78,500,500c-48.96-4.56-109.27,3.69-170.72,26.06
		c-61.15,22.26-112.47,54.49-147.03,89.27C231.21,619.9,291.52,611.64,352.97,589.27z"/>
	<path class="st12" d="M370.7,613.45C427.06,580.91,472,540.25,500,500c-49.01,4.01-106.97,22.61-163.6,55.31
		c-56.36,32.54-101.29,73.2-129.3,113.45C256.11,664.75,314.07,646.14,370.7,613.45z"/>
	<path class="st13" d="M392.37,634.18C442.22,592.34,479.41,544.5,500,500c-47.57,12.46-101.42,40.84-151.51,82.88
		c-49.85,41.83-87.04,89.67-107.63,134.18C288.42,704.6,342.27,676.21,392.37,634.18z"/>
	<path class="st14" d="M417.3,650.83C459.13,600.97,487.45,547.4,500,500c-44.68,20.53-92.78,57.83-134.82,107.93
		c-41.83,49.85-70.15,103.43-82.7,150.83C327.17,738.23,375.27,700.92,417.3,650.83z"/>
	<path class="st15" d="M444.75,662.9C477.29,606.54,495.87,548.86,500,500c-40.44,27.98-81.33,73.07-114.03,129.7
		c-32.54,56.36-51.13,114.04-55.25,162.9C371.16,764.62,412.05,719.53,444.75,662.9z"/>
	<path class="st16" d="M473.87,670.02C496.13,608.86,504.42,548.84,500,500c-34.97,34.57-67.41,86.08-89.77,147.53
		c-22.26,61.15-30.55,121.18-26.13,170.02C419.07,782.97,451.51,731.47,473.87,670.02z"/>
	<path class="st17" d="M503.79,671.97c11.3-64.09,9.04-124.64-3.79-171.97c-28.43,40.12-51.44,96.48-62.79,160.88
		c-11.3,64.09-9.04,124.64,3.79,171.97C469.44,792.73,492.44,736.37,503.79,671.97z"/>
	<path class="st18" d="M533.6,668.7c0-65.08-12.74-124.32-33.6-168.7c-21.04,44.45-33.9,103.94-33.9,169.34
		c0,65.08,12.74,124.32,33.6,168.7C520.73,793.59,533.6,734.09,533.6,668.7z"/>
	<path class="st19" d="M562.38,660.3C551.08,596.21,528.25,540.08,500,500c-13,47.43-15.34,108.25-3.98,172.65
		c11.3,64.09,34.14,120.22,62.38,160.3C571.4,785.53,573.74,724.7,562.38,660.3z"/>
	<path class="st20" d="M589.27,647.03C567.01,585.88,534.78,534.57,500,500c-4.56,48.96,3.69,109.27,26.06,170.72
		c22.26,61.15,54.49,112.47,89.27,147.03C619.9,768.79,611.64,708.48,589.27,647.03z"/>
	<path class="st21" d="M613.45,629.3C580.91,572.94,540.25,528,500,500c4.01,49.01,22.61,106.97,55.31,163.6
		c32.54,56.36,73.2,101.29,113.45,129.3C664.75,743.89,646.14,685.93,613.45,629.3z"/>
	<path class="st22" d="M634.18,607.63C592.34,557.78,544.5,520.59,500,500c12.46,47.57,40.84,101.42,82.88,151.51
		c41.83,49.85,89.67,87.05,134.18,107.63C704.6,711.58,676.21,657.73,634.18,607.63z"/>
	<path class="st23" d="M650.83,582.7C600.97,540.87,547.4,512.55,500,500c20.53,44.68,57.83,92.78,107.93,134.82
		c49.85,41.83,103.43,70.15,150.83,82.7C738.23,672.83,700.92,624.73,650.83,582.7z"/>
	<path class="st24" d="M662.9,555.25C606.54,522.71,548.86,504.13,500,500c27.98,40.44,73.07,81.33,129.7,114.03
		c56.36,32.54,114.04,51.13,162.9,55.25C764.62,628.84,719.53,587.95,662.9,555.25z"/>
	<path class="st25" d="M670.02,526.13C608.86,503.87,548.84,495.58,500,500c34.57,34.97,86.08,67.41,147.53,89.77
		c61.15,22.26,121.18,30.55,170.02,26.13C782.97,580.93,731.47,548.49,670.02,526.13z"/>
	<path class="st26" d="M671.97,496.21c-64.09-11.3-124.64-9.04-171.97,3.79c40.12,28.43,96.48,51.44,160.88,62.79
		c64.09,11.3,124.64,9.04,171.97-3.79C792.73,530.56,736.37,507.56,671.97,496.21z"/>
	<path class="st27" d="M668.7,466.4c-65.08,0-124.32,12.74-168.7,33.6c44.45,21.04,103.94,33.9,169.34,33.9
		c65.08,0,124.32-12.74,168.7-33.6C793.59,479.27,734.09,466.4,668.7,466.4z"/>
	<path class="st28" d="M660.3,437.62C596.21,448.92,540.08,471.75,500,500c47.43,13,108.25,15.34,172.65,3.98
		c64.09-11.3,120.22-34.14,160.3-62.38C785.53,428.6,724.7,426.26,660.3,437.62z"/>
	<path class="st29" d="M647.03,410.73C585.88,432.99,534.57,465.22,500,500c48.96,4.56,109.27-3.69,170.72-26.06
		c61.15-22.26,112.47-54.49,147.03-89.27C768.79,380.1,708.48,388.36,647.03,410.73z"/>
	<path class="st30" d="M629.3,386.55C572.94,419.09,528,459.75,500,500c49.01-4.01,106.97-22.61,163.6-55.31
		c56.36-32.54,101.29-73.2,129.3-113.45C743.89,335.25,685.93,353.86,629.3,386.55z"/>
	<path class="st31" d="M607.63,365.82C557.78,407.66,520.59,455.5,500,500c47.57-12.46,101.42-40.84,151.51-82.88
		c49.85-41.83,87.05-89.67,107.63-134.18C711.58,295.4,657.73,323.79,607.63,365.82z"/>
	<path class="st32" d="M582.7,349.17C540.87,399.03,512.55,452.6,500,500c44.68-20.53,92.78-57.83,134.82-107.93
		c41.83-49.85,70.15-103.43,82.7-150.83C672.83,261.77,624.73,299.08,582.7,349.17z"/>
	<path class="st33" d="M555.25,337.1C522.71,393.46,504.13,451.14,500,500c40.44-27.98,81.33-73.07,114.03-129.7
		c32.54-56.36,51.13-114.04,55.25-162.9C628.84,235.38,587.95,280.47,555.25,337.1z"/>
	<path class="st34" d="M526.13,329.98C503.87,391.14,495.58,451.16,500,500c34.97-34.57,67.41-86.08,89.77-147.53
		c22.26-61.15,30.55-121.18,26.13-170.02C580.93,217.03,548.49,268.53,526.13,329.98z"/>
	<path class="st0" d="M496.21,328.03c-11.3,64.09-9.04,124.64,3.79,171.97c28.43-40.12,51.44-96.48,62.79-160.88
		c11.3-64.09,9.04-124.64-3.79-171.97C530.56,207.27,507.56,263.63,496.21,328.03z"/>
</g>
</svg>
